<svg xmlns="http://www.w3.org/2000/svg" version="1.1" xmlns:xlink="http://www.w3.org/1999/xlink" xmlns:svgjs="http://svgjs.com/svgjs" width="1440" height="550" preserveAspectRatio="none" viewBox="0 0 1440 550"><g mask="url(&quot;#SvgjsMask1005&quot;)" fill="none"><rect width="1440" height="550" x="0" y="0" fill="rgba(237, 237, 237, 1)"></rect><path d="M690 62.73C637.32 86.18 598 105.49 598 138C598 166.13 640.9 174.97 690 184C755.9 196.13 762.76 194.82 828 180.32C866.26 171.82 897 166.65 897 138C897 94.3 876.39 53.2 828 35.61C772.89 15.57 752.32 34.98 690 62.73" stroke="rgba(145, 152, 159, 0.58)" stroke-width="2"></path><path d="M1242 111C1222.48 115.31 1210.56 120.68 1210.56 138C1210.56 173 1218.02 182.69 1242 215.63C1268.24 251.69 1273.66 249.98 1311 276C1342.66 298.06 1346.6 311.78 1380 311.78C1407.21 311.78 1425.28 303.29 1432.22 276C1447.36 216.4 1442.56 199.82 1424.16 138C1416.45 112.11 1406.86 104.56 1380 100.58C1315.78 91.06 1307.2 96.6 1242 111" stroke="rgba(145, 152, 159, 0.58)" stroke-width="2"></path><path d="M414 244.15C395.19 244.15 371.76 255.56 371.76 276C371.76 309.82 396.84 352.67 414 352.67C429.72 352.67 437.52 312.33 437.52 276C437.52 258.07 428.07 244.15 414 244.15" stroke="rgba(145, 152, 159, 0.58)" stroke-width="2"></path><path d="M552 389.19C511.51 396.5 473.14 400.81 473.14 414C473.14 427.37 514.73 423.53 552 442.31C623.16 478.16 638.53 531.45 690 523.25C727.4 517.29 729.73 464.14 729.73 414C729.73 389.95 715.48 378.43 690 374.87C626.61 366.02 619.94 376.93 552 389.19" stroke="rgba(145, 152, 159, 0.58)" stroke-width="2"></path><path d="M54.15 138C50.51 75.37 86.48 63.75 125.22 0C128.41 -5.25 131.61 0 138 0C207 0 207 0 276 0C314.74 0 321.89 -15.79 353.47 0C390.89 18.71 380.26 38.23 414 69C455.92 107.23 458.41 104.93 504.79 138C527.41 154.13 527.23 154.85 552 167.41C619.84 201.81 617.62 216.47 690 231.92C755.62 245.93 762.5 213.83 828 226.32C878.07 235.87 910.08 236.29 921.15 276C936.25 330.13 888.26 343.64 880.34 414C872.73 481.64 908.16 504.38 890.1 552C881.99 573.38 859.05 552 828 552C783.64 552 748.04 578.25 739.29 552C725.04 509.25 795.01 474.36 782 414C770.37 360.04 745.05 338.59 690 323.37C630.05 306.8 612.84 363.94 552 350.43C506.2 340.26 511.28 315.89 476.73 276C442.28 236.22 451.54 191.08 414 191.08C363.85 191.08 350.34 227.48 301.35 276C281.34 295.82 289.5 327.75 276 327.75C262.04 327.75 269.06 293.7 246.43 276C200.06 239.72 187.08 255 138 219.78C90.94 186 56.9 185.26 54.15 138" stroke="rgba(145, 152, 159, 0.58)" stroke-width="2"></path><path d="M966 127.38C925.44 63.8 885.22 41.48 885.22 0C885.22 -22.21 925.61 0 966 0C1002.8 0 1006.97 -12.02 1039.6 0C1075.97 13.4 1074.6 50.84 1104 50.84C1127.5 50.84 1117.5 10.28 1145.4 0C1186.5 -15.14 1193.7 0 1242 0C1311 0 1311 0 1380 0C1449 0 1483.5 -34.5 1518 0C1552.5 34.5 1518 69 1518 138C1518 194.45 1524.14 250.91 1518 250.91C1511.72 250.91 1523.38 183.73 1493.16 138C1454.38 79.33 1444.26 58.6 1380 42.1C1318.68 26.35 1304.7 45.29 1242 73.5C1198.14 93.24 1174.86 96.52 1166.89 138C1155.4 197.77 1175.29 213.25 1203.08 276C1212.85 298.06 1220.25 295.38 1242 307.63C1308.71 345.21 1313.59 381.44 1380 375.67C1451.59 369.46 1479.36 272.94 1518 283.67C1548.36 292.1 1518 348.84 1518 414C1518 465 1531.46 471.13 1518 516C1510.76 540.13 1501.59 545.48 1476.6 552C1432.59 563.48 1428.3 552 1380 552C1311 552 1311 552 1242 552C1185.18 552 1184.13 556.65 1128.35 552C1115.13 550.9 1111.17 551.46 1104 540.5C1066 482.46 1061.71 480.55 1038 414C1014.59 348.3 1025.84 344.54 1009.76 276C993.47 206.54 993.33 206.17 973.26 138C971.45 131.86 969.46 132.8 966 127.38" stroke="rgba(145, 152, 159, 0.58)" stroke-width="2"></path><path d="M83.15 552C83.15 535.42 103.39 510.43 138 495.71C199.82 469.41 220.09 453.26 276 469.95C314.39 481.41 326.6 525.1 326.6 552C326.6 566.12 301.3 552 276 552C207 552 207 552 138 552C110.57 552 83.15 563.57 83.15 552" stroke="rgba(145, 152, 159, 0.58)" stroke-width="2"></path><path d="M483.92 552C483.92 532.98 515.75 486.54 552 486.54C594.58 486.54 641.58 533.89 641.58 552C641.58 566.62 596.79 552 552 552C517.96 552 483.92 565.71 483.92 552" stroke="rgba(145, 152, 159, 0.58)" stroke-width="2"></path><path d="M97.82 138C97.82 104.12 110.64 64.19 138 64.19C176.07 64.19 228.69 107.38 228.69 138C228.69 163.88 179.73 177.19 138 177.19C114.29 177.19 97.82 160.62 97.82 138" stroke="rgba(145, 152, 159, 0.58)" stroke-width="2"></path><path d="M276 50.84C261.84 50.84 240.22 16.13 240.22 0C240.22 -9.29 258.11 0 276 0C284.48 0 292.95 -6.11 292.95 0C292.95 19.31 288.21 50.84 276 50.84" stroke="rgba(145, 152, 159, 0.58)" stroke-width="2"></path><path d="M1064.05 138C1065.33 117.11 1086.43 111.37 1104 111.37C1116.02 111.37 1122.2 122.2 1123.22 138C1127.51 204.52 1087.46 220.79 1114.62 276C1146.85 341.54 1174.65 333.64 1242 379.5C1275.98 402.64 1317.27 390.42 1317.27 414C1317.27 443.67 1286.75 479.56 1242 486C1180.11 494.9 1166.09 473.7 1104 444.67C1089.09 437.7 1089.01 430.89 1088 414C1083.96 346.56 1099.82 344.24 1093.9 276C1087.85 206.24 1060.28 199.43 1064.05 138" stroke="rgba(145, 152, 159, 0.58)" stroke-width="2"></path><path d="M1242 36C1215.39 36 1194.69 10.02 1194.69 0C1194.69 -7.98 1218.35 0 1242 0C1295.42 0 1348.84 -8.76 1348.84 0C1348.84 9.24 1292.46 36 1242 36" stroke="rgba(145, 152, 159, 0.58)" stroke-width="2"></path><path d="M1518 81.38C1485.14 81.38 1412.2 22.7 1412.2 0C1412.2 -17.99 1488.1 -23 1518 0C1541 17.69 1538.04 81.38 1518 81.38" stroke="rgba(145, 152, 159, 0.58)" stroke-width="2"></path><path d="M515.93 276C515.93 251.66 526.26 223.97 552 223.97C607.78 223.97 678.96 253.64 678.96 276C678.96 297.49 610.87 311.66 552 311.66C529.36 311.66 515.93 295.5 515.93 276" stroke="rgba(145, 152, 159, 0.58)" stroke-width="2"></path><path d="M759 276C759 263.08 793.91 272.32 828 272.32C831.86 272.32 834.9 272.37 834.9 276C834.9 301.81 842.66 331.2 828 331.2C804.71 331.2 759 292.52 759 276" stroke="rgba(145, 152, 159, 0.58)" stroke-width="2"></path><path d="M1452.63 414C1452.63 398.29 1495.72 379.5 1518 379.5C1528.4 379.5 1518 396.75 1518 414C1518 427.5 1527.03 441 1518 441C1494.35 441 1452.63 429.04 1452.63 414" stroke="rgba(145, 152, 159, 0.58)" stroke-width="2"></path><path d="M127.38 552C127.38 548.79 130.76 541.11 138 541.11C182.07 541.11 230 549.27 230 552C230 554.71 184 552 138 552C132.69 552 127.38 554.24 127.38 552" stroke="rgba(145, 152, 159, 0.58)" stroke-width="2"></path><path d="M529.92 552C529.92 545.83 540.24 530.77 552 530.77C565.81 530.77 581.05 546.13 581.05 552C581.05 556.74 566.53 552 552 552C540.96 552 529.92 556.45 529.92 552" stroke="rgba(145, 152, 159, 0.58)" stroke-width="2"></path><path d="M800.89 552C800.89 508.37 816.39 443.57 828 443.57C839.43 443.57 846.98 505.76 846.98 552C846.98 559.97 837.49 552 828 552C814.44 552 800.89 562.58 800.89 552" stroke="rgba(145, 152, 159, 0.58)" stroke-width="2"></path><path d="M1350.43 552C1350.43 542.52 1368.73 520.15 1380 520.15C1388.69 520.15 1390.35 539.83 1390.35 552C1390.35 555.76 1385.18 552 1380 552C1365.22 552 1350.43 558.45 1350.43 552" stroke="rgba(145, 152, 159, 0.58)" stroke-width="2"></path></g><defs><mask id="SvgjsMask1005"><rect width="1440" height="550" fill="#ffffff"></rect></mask></defs></svg>